# xmcd CD database file
#
# Track frame offsets:
#	150
#	28355
#	51247
#	72776
#	93641
#	115892
#	145234
#	164770
#	185220
#	210271
#	239053
#	256984
#
# Disc length: 3814 seconds
#
# Revision: 0
# Processed by: cddbd v1.5.2PL0 Copyright (c) Steve Scherf et al.
# Submitted via: CDex 1.70beta2
#
DISCID=bc0ee40c
DTITLE=Unknow - A Momet of Time - Soothng Melodies for Body and Soul
DYEAR=1900
DGENRE=Jazz
TTITLE0=Moon River
TTITLE1=Long Ago and Far Away
TTITLE2=Your Song
TTITLE3=By The Hearth
TTITLE4=Sweet Baby James
TTITLE5=On Golden Rond
TTITLE6=Angelica
TTITLE7=Homeward Bound
TTITLE8=A Winter's Tale
TTITLE9=Places That Belong to You
TTITLE10=Morning Prayer
TTITLE11=You Are So Beautiful
EXTD=
EXTT0=
EXTT1=
EXTT2=
EXTT3=
EXTT4=
EXTT5=
EXTT6=
EXTT7=
EXTT8=
EXTT9=
EXTT10=
EXTT11=
PLAYORDER=
